# xmcd CD database file
#
# Track frame offsets:
#	150
#	25472
#	43877
#	67697
#	88480
#	107602
#	133110
#	154280
#	174492
#	194162
#	213222
#	269080
#
# Disc length: 4385 seconds
#
# Revision: 2
# Processed by: cddbd v1.5.1PL0 Copyright (c) Steve Scherf et al.
# Submitted via: CDex 1.51
#
DISCID=b8111f0c
DTITLE=Silverchair - Diorama
DYEAR=2002
DGENRE=Alternative
TTITLE0=Across The Night
TTITLE1=The Greatest View
TTITLE2=Without You
TTITLE3=World Upon Your Shoulders
TTITLE4=One Way Mule
TTITLE5=Tuna In The Brine
TTITLE6=Too Much Of Not Enough
TTITLE7=Luv Your Life
TTITLE8=The Lever
TTITLE9=My Favorite Thing
TTITLE10=After All These Years
TTITLE11=DATA
EXTD=YEAR: 2002
EXTT0=
EXTT1=
EXTT2=
EXTT3=
EXTT4=
EXTT5=
EXTT6=
EXTT7=
EXTT8=
EXTT9=
EXTT10=
EXTT11=
PLAYORDER=
